<svg xmlns="http://www.w3.org/2000/svg" enable-background="new 0 0 512 512" viewBox="0 0 512 512" id="Notification">
  <path d="M195.727 93.914c-3.32 2.102-6.359 4.445-9.039 6.969C174.113 112.719 168 129.445 168 152c0 4.422 3.582 8 8 8s8-3.578 8-8c0-17.906 4.469-30.82 13.656-39.469 1.934-1.828 4.16-3.539 6.617-5.086 3.734-2.367 4.848-7.305 2.488-11.039C204.398 92.672 199.445 91.555 195.727 93.914zM242.027 79.82c-6.145 0-8.836.664-15.336 2.273l-4.559 1.109c-4.297 1.031-6.945 5.352-5.91 9.648.879 3.672 4.156 6.133 7.77 6.133.621 0 1.25-.07 1.875-.219l4.664-1.141c6.043-1.492 7.301-1.805 11.496-1.805 4.418 0 8-3.578 8-8S246.445 79.82 242.027 79.82z" fill="#ffffff" class="color000000 svgShape"></path>
  <path d="M264,0h-16c-13.234,0-24,10.766-24,24v26.168c-18.322,3.141-40.988,10.407-58.891,27.082
		C145.793,95.234,136,120.383,136,152c0,60.016-35.348,142.141-99.57,231.305c-2.898,4.094-4.43,8.906-4.43,13.898V408
		c0,13.234,10.766,24,24,24h112.405c4.06,44.783,41.771,80,87.595,80s83.535-35.217,87.595-80H456c13.234,0,24-10.766,24-24v-10.797
		c0-4.992-1.531-9.805-4.648-14.211c-9.257-12.926-32.335-45.195-53.78-85.127l42.476,4.807c0.586,0.039,1.176,0.055,1.762,0.055
		c7.25,0,14.125-2.992,19.086-8.375c5.363-5.805,7.777-13.633,6.617-21.453l-22.508-151.758c-1.16-7.82-5.738-14.609-12.555-18.609
		c-6.812-4.016-14.977-4.727-22.711-1.773l-60.228,25.979C362.952,73.195,319.187,55.852,288,50.377V24C288,10.766,277.234,0,264,0z
		 M240,24c0-4.414,3.59-8,8-8h16c4.41,0,8,3.586,8,8v24.366c-8.2-0.621-14.096-0.46-15.953-0.381
		c-1.83-0.094-7.774-0.32-16.047,0.247V24z M256,496c-36.993,0-67.532-28.052-71.528-64h143.057
		C323.532,467.948,292.993,496,256,496z M464,397.203V408c0,4.414-3.59,8-8,8H56c-4.41,0-8-3.586-8-8v-10.797
		c0-1.672,0.516-3.281,1.453-4.602c4.013-5.572,7.897-11.103,11.684-16.602h181.085c1.241,1.434,2.605,2.771,4.165,3.93
		c4.543,3.375,9.922,5.148,15.441,5.148c1.254,0,2.52-0.086,3.785-0.273c6.366-0.911,11.939-4.164,15.916-8.805h169.326
		c4.813,6.98,8.844,12.617,11.652,16.539C463.484,393.922,464,395.531,464,397.203z M271.809,357.828
		c0.066,0.398,0.031,0.805,0.031,1.211c0,4.969-3.652,9.234-8.523,9.93c-2.629,0.391-5.238-0.281-7.387-1.875
		c-2.152-1.602-3.551-3.938-3.938-6.578l-5.553-37.691l19.727-2.928L271.809,357.828z M281.079,265.864l-11.408-76.918
		l147.369-63.572l23.514,158.546L281.079,265.864z M254.115,193.126l10.864,73.25l-27.717,4.108
		c-13.238,1.961-25.457,0.312-34.383-4.664c-9.289-5.188-14.871-13.664-16.582-25.203c-4.008-27,18.09-40.117,40.102-43.383
		L254.115,193.126z M239.609,286.312l34.598-5.125l2.544,0.288l2.272,10.228c0.391,2.617-0.273,5.25-1.875,7.406
		c-1.602,2.164-3.93,3.562-6.559,3.953l-35.629,5.289c-2.66,0.375-5.266-0.281-7.418-1.883c-2.16-1.602-3.562-3.93-4.02-6.938
		l-2.506-12.624C226.958,287.329,233.119,287.281,239.609,286.312z M440.086,360H287.751c0.012-0.325,0.088-0.634,0.088-0.961
		c0-1.359-0.043-2.711-0.246-3.82l-5.854-39.383c3.184-1.775,6.017-4.167,8.26-7.187c4.148-5.594,5.871-12.445,4.75-19.852
		l-1.197-5.42l108.803,12.313C415.018,320.331,428.627,342.546,440.086,360z M439.73,115.586c2.848-1.086,5.984-0.805,8.613,0.734
		c2.625,1.547,4.387,4.156,4.832,7.164l22.508,151.758c0.445,3.016-0.48,6.023-2.547,8.266c-2.062,2.234-4.941,3.359-7.66,3.234
		l-8.471-0.959l-24.763-166.967L439.73,115.586z M358.431,133.241l-99.783,43.041l-34.598,5.125
		c-36.703,5.453-58.234,30.188-53.582,61.555c2.445,16.477,10.957,29.211,24.617,36.828c2.816,1.572,5.845,2.843,8.988,3.926
		l3.688,18.542c1.016,6.859,4.656,12.914,10.246,17.062c3.717,2.762,8.003,4.381,12.466,4.902L235.746,360H71.886
		C124.395,280.06,152,208.665,152,152c0-26.961,8.055-48.148,23.941-62.977c30.09-28.094,79.016-25.047,79.5-25.047
		c0.359,0.031,0.746,0.031,1.129,0C260.354,63.755,346.303,58.491,358.431,133.241z" fill="#ffffff" class="color000000 svgShape"></path>
  <path d="M311.516 184.648l-18.668 8c-4.059 1.742-5.941 6.445-4.199 10.5 1.297 3.039 4.25 4.852 7.355 4.852 1.051 0 2.121-.203 3.148-.648l18.668-8c4.059-1.742 5.941-6.445 4.199-10.5C320.281 184.781 315.586 182.891 311.516 184.648zM399.352 155.711c-1.738-4.07-6.438-5.961-10.504-4.203l-48 20.57c-4.059 1.742-5.941 6.445-4.199 10.5 1.297 3.039 4.25 4.852 7.355 4.852 1.051 0 2.121-.203 3.148-.648l48-20.57C399.215 164.469 401.094 159.766 399.352 155.711z" fill="#ffffff" class="color000000 svgShape"></path>
</svg>
